<svg xmlns="http://www.w3.org/2000/svg" width="25" height="25" viewBox="0 0 25 25" fill="none">
    <path
        d="M21.6272 12.2443C21.6306 13.5642 21.3223 14.8662 20.7272 16.0443C20.0216 17.4561 18.9369 18.6435 17.5946 19.4736C16.2523 20.3037 14.7054 20.7437 13.1272 20.7443C11.8073 20.7478 10.5053 20.4394 9.3272 19.8443L3.6272 21.7443L5.5272 16.0443C4.93213 14.8662 4.62376 13.5642 4.6272 12.2443C4.62781 10.6661 5.06781 9.11919 5.89792 7.77689C6.72802 6.43459 7.91545 5.3499 9.3272 4.64434C10.5053 4.04927 11.8073 3.7409 13.1272 3.74434H13.6272C15.7115 3.85933 17.6802 4.7391 19.1563 6.2152C20.6324 7.69129 21.5122 9.65999 21.6272 11.7443V12.2443Z"
        stroke="black" stroke-width="2" stroke-linecap="round" stroke-linejoin="round" />
</svg>