<svg xmlns="http://www.w3.org/2000/svg" width="25" height="25" viewBox="0 0 25 25" fill="none">
  <g clip-path="url(#clip0_77_11)">
    <path d="M21.8201 5.55773C21.3093 5.04674 20.7029 4.64138 20.0355 4.36482C19.368 4.08825 18.6526 3.94591 17.9301 3.94591C17.2076 3.94591 16.4922 4.08825 15.8247 4.36482C15.1573 4.64138 14.5509 5.04674 14.0401 5.55773L12.9801 6.61773L11.9201 5.55773C10.8884 4.52604 9.48913 3.94644 8.0301 3.94644C6.57107 3.94644 5.17179 4.52604 4.1401 5.55773C3.10841 6.58943 2.52881 7.9887 2.52881 9.44773C2.52881 10.9068 3.10841 12.306 4.1401 13.3377L5.2001 14.3977L12.9801 22.1777L20.7601 14.3977L21.8201 13.3377C22.3311 12.827 22.7365 12.2205 23.013 11.5531C23.2896 10.8856 23.4319 10.1702 23.4319 9.44773C23.4319 8.72525 23.2896 8.00984 23.013 7.34238C22.7365 6.67492 22.3311 6.06849 21.8201 5.55773Z" stroke="black" stroke-width="2" stroke-linecap="round" stroke-linejoin="round"/>
  </g>
  <defs>
    <clipPath id="clip0_77_11">
      <rect width="24" height="24" fill="white" transform="translate(0.97998 0.947739)"/>
    </clipPath>
  </defs>
</svg>