<svg xmlns="http://www.w3.org/2000/svg" width="100" height="100" viewBox="0 0 100 100" fill="none">
    <circle cx="50" cy="50" r="50" fill="#1677FF"/>
    <path d="M72.5899 48.1172C72.517 49.9766 72.2436 51.8086 71.7696 53.6133C71.2957 55.418 70.5756 57.0495 69.6095 58.5078C68.6616 59.9661 67.4493 61.1328 65.9728 62.0078C64.4962 62.8828 62.7097 63.3203 60.6134 63.3203C59.4285 63.3203 58.3621 63.1107 57.4142 62.6914C56.4662 62.2721 55.6642 61.6797 55.0079 60.9141C54.3517 60.1302 53.8686 59.1914 53.5587 58.0977C53.2488 57.0039 53.1394 55.7734 53.2306 54.4062L54.6251 38.6562H60.0939L58.7267 54.4062C58.6173 55.3542 58.6264 56.1289 58.754 56.7305C58.8998 57.332 59.1186 57.7969 59.4103 58.125C59.7202 58.4531 60.0665 58.6901 60.4493 58.8359C60.8504 58.9635 61.2423 59.0273 61.6251 59.0273C62.5001 59.0273 63.3022 58.7539 64.0314 58.207C64.7605 57.6602 65.3894 56.9036 65.9181 55.9375C66.4467 54.9714 66.866 53.8411 67.1759 52.5469C67.4858 51.2344 67.659 49.8216 67.6954 48.3086C67.823 45.8841 67.7045 43.6419 67.3399 41.582C66.9936 39.5221 66.392 37.681 65.5353 36.0586C64.6967 34.418 63.603 33.0326 62.254 31.9023C60.9051 30.7539 59.3009 29.8789 57.4415 29.2773C55.5821 28.6576 53.4584 28.3477 51.0704 28.3477C48.8282 28.3477 46.7592 28.694 44.8634 29.3867C42.9858 30.0794 41.2996 31.0729 39.8048 32.3672C38.3282 33.6615 37.0522 35.2109 35.9767 37.0156C34.9194 38.8021 34.0808 40.7982 33.461 43.0039C32.8595 45.1914 32.504 47.543 32.3946 50.0586C32.267 52.7018 32.4037 55.1081 32.8048 57.2773C33.2241 59.4466 33.8894 61.3516 34.8009 62.9922C35.7306 64.651 36.8881 66.0365 38.2735 67.1484C39.659 68.2604 41.2722 69.099 43.1134 69.6641C44.9545 70.2292 47.0053 70.5117 49.2657 70.5117C50.8517 70.5117 52.4649 70.3294 54.1056 69.9648C55.7644 69.6185 57.159 69.1719 58.2892 68.625L59.3282 72.6992C58.0522 73.5195 56.4571 74.1302 54.5431 74.5312C52.6472 74.9323 50.8517 75.1328 49.1564 75.1328C46.2579 75.1328 43.6147 74.7773 41.2267 74.0664C38.8569 73.3737 36.7605 72.3346 34.9376 70.9492C33.1147 69.582 31.5926 67.8867 30.3712 65.8633C29.1681 63.8398 28.2748 61.5065 27.6915 58.8633C27.1264 56.2201 26.9077 53.2852 27.0353 50.0586C27.1629 47.069 27.6277 44.2526 28.4298 41.6094C29.2319 38.9661 30.3256 36.569 31.711 34.418C33.0965 32.2669 34.7553 30.4167 36.6876 28.8672C38.6381 27.2995 40.8256 26.0964 43.2501 25.2578C45.6746 24.4193 48.3178 24 51.1798 24C54.0235 24 56.603 24.3737 58.9181 25.1211C61.2514 25.8685 63.2931 26.944 65.0431 28.3477C66.7931 29.7331 68.2514 31.4193 69.4181 33.4062C70.5847 35.375 71.4324 37.599 71.961 40.0781C72.4897 42.5573 72.6993 45.237 72.5899 48.1172ZM44.9728 50.9883C44.8816 52.1914 44.8907 53.2578 45.0001 54.1875C45.1095 55.1172 45.3191 55.901 45.629 56.5391C45.9389 57.1771 46.3399 57.6602 46.8321 57.9883C47.3426 58.2982 47.9441 58.4531 48.6368 58.4531C49.0196 58.4531 49.4389 58.362 49.8946 58.1797C50.3504 57.9792 50.8152 57.651 51.2892 57.1953C51.7631 56.7396 52.2097 56.1107 52.629 55.3086C53.0665 54.4883 53.4311 53.4583 53.7228 52.2188L56.047 54.9805C55.6277 56.3477 55.1082 57.5508 54.4884 58.5898C53.8686 59.6107 53.1577 60.4674 52.3556 61.1602C51.5717 61.8529 50.7149 62.3724 49.7853 62.7188C48.8556 63.0651 47.853 63.2383 46.7774 63.2383C45.4467 63.2383 44.2618 62.9557 43.2228 62.3906C42.1837 61.8073 41.3178 60.9779 40.6251 59.9023C39.9324 58.8268 39.4311 57.5417 39.1212 56.0469C38.8295 54.5339 38.7748 52.8477 38.9571 50.9883C39.1577 49.1289 39.5222 47.4062 40.0509 45.8203C40.5795 44.2344 41.2358 42.8216 42.0196 41.582C42.8035 40.3242 43.6967 39.2578 44.6993 38.3828C45.7202 37.4896 46.823 36.8151 48.0079 36.3594C49.1928 35.9036 50.4324 35.6758 51.7267 35.6758C53.823 35.6758 55.4728 35.9766 56.6759 36.5781C57.879 37.1797 59.0183 37.8724 60.0939 38.6562L57.3048 42.4023C56.7761 41.9284 56.0834 41.4727 55.2267 41.0352C54.3881 40.5794 53.3855 40.3516 52.2189 40.3516C51.1433 40.3516 50.1954 40.5794 49.3751 41.0352C48.573 41.4909 47.8712 42.1745 47.2696 43.0859C46.6863 43.9792 46.2032 45.0911 45.8204 46.4219C45.4376 47.7344 45.1551 49.2565 44.9728 50.9883Z" fill="white"/>
  </svg>